:SAMPLES-PER-SECOND 30
:FULLY-SPECIFIED
:DEGREES
285
root  78.4231 39.3336 4.01662 -99.2139 -87.3843 99.2941
RightUpLeg  2.3413 -10.1169 -8.8427
RightLeg  5.15636 5.11523 -0.00765372
RightFoot  -7.16226 -0.216651 4.6063
RightToes  3.49245e-010 0 -3.6325e-017
Spine  5.09422 1.53207 1.42179
Spine1  -3.36152 2.13652 -3.66496
HEad  -1.307 7.27831 -2.4519
LeftShoulder1  -0.334826 4.47368 -28.3458
LeftArm  -7.84035 10.06 -18.3787
LeftForeArm  17.3274 -26.5786 -4.78537
LeftHand  -0.00387205 6.24849 3.53335
RightShoulder  -0.502232 -5.03029 26.0862
RightArm  3.57681 -3.52822 21.8478
RightForeArm  7.45411 16.6071 3.08477
RightHand  -0.32709 5.72647 -3.79748
LeftUpLeg  -0.923535 4.26106 -2.41746
LeftLeg  5.56318 3.79761 0.256522
LeftFoot  -4.63805 -0.198349 3.86703
LeftToes  -5.6298e-010 8.41567e-011 -1.83319e-011
286
root  78.4338 39.2349 4.17242 -97.4738 -87.249 97.3817
RightUpLeg  1.29106 -9.67909 -9.10886
RightLeg  7.62659 4.66329 -0.112877
RightFoot  -8.26337 -0.188945 4.93639
RightToes  3.49245e-010 0 -3.6325e-017
Spine  4.48249 1.59405 0.943838
Spine1  -1.54442 2.18848 -3.51455
HEad  -1.19135 6.65571 -2.11269
LeftShoulder1  -0.424094 4.68866 -29.6157
LeftArm  -5.56732 9.46441 -21.3917
LeftForeArm  16.0856 -25.3223 -4.57295
LeftHand  -0.00786336 6.15341 3.15679
RightShoulder  -0.570997 -5.22142 26.4678
RightArm  3.30682 -3.35953 25.7684
RightForeArm  8.28264 15.5017 2.92936
RightHand  -0.250144 8.06494 -2.53443
LeftUpLeg  -1.52151 4.54542 -2.62664
LeftLeg  7.1824 3.42967 -0.00875593
LeftFoot  -5.57337 -0.179607 4.2307
LeftToes  -5.6298e-010 8.41567e-011 -1.83319e-011
287
root  78.4026 39.1081 4.32149 -98.5993 -87.0605 98.2065
RightUpLeg  0.0102428 -8.43058 -9.47547
RightLeg  10.8539 3.47246 -0.0264325
RightFoot  -9.40638 -0.152906 5.26255
RightToes  3.49245e-010 0 -3.6325e-017
Spine  4.69423 1.57202 0.416941
Spine1  -0.991253 2.1426 -3.72243
HEad  -0.983865 6.68263 -1.78835
LeftShoulder1  -0.554111 5.00461 -30.7836
LeftArm  -2.85248 9.59203 -24.3734
LeftForeArm  15.8186 -24.1834 -4.34242
LeftHand  -0.0111658 6.03932 2.22249
RightShoulder  -0.663265 -5.44376 27.5137
RightArm  3.94285 -3.46185 29.1341
RightForeArm  9.10421 15.1552 3.06701
RightHand  -0.253328 5.94448 -2.91837
LeftUpLeg  -1.97404 4.76702 -2.95611
LeftLeg  8.93755 3.29955 -0.0442717
LeftFoot  -6.60243 -0.146393 4.49612
LeftToes  -5.6298e-010 8.41567e-011 -1.83319e-011
288
root  78.4027 38.9753 4.4741 -101.608 -86.7109 100.866
RightUpLeg  -1.9521 -6.11858 -10.0487
RightLeg  15.3077 1.5687 0.0831111
RightFoot  -10.2222 -0.128712 6.09058
RightToes  3.49245e-010 0 -3.6325e-017
Spine  4.91697 1.54463 -0.25243
Spine1  -0.0801419 2.11406 -4.02416
HEad  -0.991469 6.40363 -1.56648
LeftShoulder1  -0.616572 5.12143 -31.9696
LeftArm  0.920882 9.20589 -27.4318
LeftForeArm  14.2437 -22.5372 -4.25215
LeftHand  0.0590348 8.90353 3.49732
RightShoulder  -0.696183 -5.48687 28.4203
RightArm  3.682 -3.1096 33.0767
RightForeArm  9.88904 13.5591 3.00116
RightHand  -0.200377 6.73235 -2.25973
LeftUpLeg  -2.29036 5.02836 -3.39977
LeftLeg  10.4481 3.36008 -0.209518
LeftFoot  -7.57065 -0.109501 4.71257
LeftToes  -5.6298e-010 8.41567e-011 -1.83319e-011
289
root  78.3687 38.8514 4.62303 -108.481 -86.2686 107.359
RightUpLeg  -4.34635 -3.33469 -10.4275
RightLeg  20.5333 -0.17725 -0.259889
RightFoot  -10.458 -0.135344 8.36333
RightToes  3.49245e-010 0 -3.6325e-017
Spine  4.99108 1.66717 -0.448805
Spine1  1.09314 2.31559 -4.74545
HEad  -1.1011 6.24851 -1.52447
LeftShoulder1  -0.684417 5.2436 -33.1698
LeftArm  2.40529 8.89145 -30.5739
LeftForeArm  15.8169 -20.7523 -4.45797
LeftHand  0.0418795 9.2848 2.46289
RightShoulder  -0.791972 -5.72026 29.1052
RightArm  3.83874 -3.13118 36.9843
RightForeArm  10.5529 12.8291 3.14507
RightHand  -0.238905 6.06246 -2.7619
LeftUpLeg  -2.42099 5.22477 -3.80598
LeftLeg  11.7762 3.84122 -0.139106
LeftFoot  -8.42304 -0.073456 4.85513
LeftToes  -5.6298e-010 8.41567e-011 -1.83319e-011
290
root  78.2759 38.731 4.7281 -128.639 -85.4442 126.522
RightUpLeg  -6.49073 -0.25885 -10.7084
RightLeg  26.108 -0.943858 -0.714734
RightFoot  -10.0252 -0.202106 11.3009
RightToes  3.49245e-010 0 -3.6325e-017
Spine  5.80362 2.16779 -0.999876
Spine1  1.99363 2.7879 -5.07854
HEad  -1.55562 6.56829 -1.5464
LeftShoulder1  -0.758064 5.37767 -34.2866
LeftArm  2.89575 9.07552 -33.3951
LeftForeArm  18.5024 -19.1417 -4.96836
LeftHand  -0.0411402 7.45093 0.174365
RightShoulder  -0.840931 -5.82075 29.6831
RightArm  4.12627 -3.03506 40.6798
RightForeArm  11.7294 11.9229 3.34094
RightHand  -0.296494 5.61574 -3.46367
LeftUpLeg  -1.61679 5.75786 -3.95023
LeftLeg  12.9225 4.87435 -0.0675395
LeftFoot  -9.40479 -0.023341 4.74389
LeftToes  -5.6298e-010 8.41567e-011 -1.83319e-011
291
root  78.2315 38.6723 4.82942 -120.116 -86.159 118.19
RightUpLeg  -9.20799 -0.856433 -10.6362
RightLeg  30.9284 -1.2379 -1.03634
RightFoot  -8.14826 -0.405881 12.6448
RightToes  3.49245e-010 0 -3.6325e-017
Spine  5.39656 1.62885 -1.54658
Spine1  3.01497 2.07915 -4.42481
HEad  -1.78174 6.79934 -1.56759
LeftShoulder1  -0.786086 5.42017 -34.8234
LeftArm  1.32106 9.02663 -36.7016
LeftForeArm  19.7514 -16.7084 -5.94035
LeftHand  -0.0148127 7.52394 0.981698
RightShoulder  -0.880099 -5.89524 30.1993
RightArm  4.11044 -3.459 43.6898
RightForeArm  13.0012 12.0354 3.38112
RightHand  -0.174144 6.54165 -2.02986
LeftUpLeg  -2.46104 5.68507 -3.96229
LeftLeg  14.2415 4.06861 0.16665
LeftFoot  -9.96366 -0.000379938 5.0143
LeftToes  -5.6298e-010 8.41567e-011 -1.83319e-011
292
root  78.095 38.6532 4.91543 -117.788 -86.4556 115.445
RightUpLeg  -11.1053 -0.959001 -10.4269
RightLeg  35.0977 -1.66973 -1.50763
RightFoot  -5.79918 -0.589185 11.3788
RightToes  3.49245e-010 0 -3.6325e-017
Spine  5.80126 1.40759 -2.23052
Spine1  3.52721 1.59668 -3.4162
HEad  -2.63293 6.30893 -1.90437
LeftShoulder1  -0.841259 5.52205 -35.4808
LeftArm  0.728853 9.50785 -39.2498
LeftForeArm  20.4129 -15.4879 -6.519
LeftHand  0.0262851 9.34249 2.17771
RightShoulder  -0.93421 -6.02871 30.416
RightArm  4.22658 -4.51331 46.0719
RightForeArm  13.5871 13.1079 3.42397
RightHand  -0.246784 6.04924 -2.83162
LeftUpLeg  -1.91107 6.04354 -3.74145
LeftLeg  14.5375 3.5213 -0.062746
LeftFoot  -10.3939 0.0196445 5.18421
LeftToes  -5.6298e-010 8.41567e-011 -1.83319e-011
